<?xml version="1.0"?>
<svg xmlns="http://www.w3.org/2000/svg" width="507.406" height="53.942" viewBox="0 0 507.406 53.942">
  <path d="M-264.82,1119.942H-95.206l18.093-17.582H240.226a1.18,1.18,0,1,0,0-2.36H-78.07l-18.093,17.582H-264.82a1.18,1.18,0,0,0-1.18,1.18A1.18,1.18,0,0,0-264.82,1119.942Z" transform="translate(266 -1100)"/>
  <g transform="translate(0 34)">
    <path d="M-264.82,1119.942H-95.206l18.093-17.582H240.226a1.18,1.18,0,1,0,0-2.36H-78.07l-18.093,17.582H-264.82a1.18,1.18,0,0,0-1.18,1.18A1.18,1.18,0,0,0-264.82,1119.942Z" transform="translate(266 -1100)"/>
  </g>
</svg>
