<?xml version="1.0"?>
<svg xmlns="http://www.w3.org/2000/svg" width="507.406" height="53.942" viewBox="0 0 507.406 53.942">
  <g transform="translate(-228.297 -961.479)">
    <g transform="translate(494.297 -138.521)">
      <path d="M240.226,1119.942H70.612L52.519,1102.36H-264.82a1.18,1.18,0,0,1-1.18-1.18,1.18,1.18,0,0,1,1.18-1.18h318.3l18.093,17.582H240.226a1.18,1.18,0,0,1,0,2.36Z"/>
    </g>
    <g transform="translate(494.297 -104.521)">
      <path d="M240.226,1119.942H70.612L52.519,1102.36H-264.82a1.18,1.18,0,0,1-1.18-1.18,1.18,1.18,0,0,1,1.18-1.18h318.3l18.093,17.582H240.226a1.18,1.18,0,0,1,0,2.36Z"/>
    </g>
  </g>
</svg>
