<?xml version="1.0"?>
<svg xmlns="http://www.w3.org/2000/svg" xmlns:xlink="http://www.w3.org/1999/xlink" width="280" height="280" viewBox="0 0 280 280">
  <defs>
    <style>.a,.f{fill:none;}.a{stroke:rgba(112,112,112,0);stroke-width:8px;}.b{fill:url(#a);}.c{fill:#fff;}.d{fill:#131e50;}.e{stroke:none;}</style>
    <linearGradient id="a" x1="0.067" y1="0.768" x2="1.089" y2="0.165" gradientUnits="objectBoundingBox">
      <stop offset="0" stop-color="#a57d55" stop-opacity="0.102"/>
      <stop offset="1" stop-color="#fff"/>
    </linearGradient>
  </defs>
  <g transform="translate(4851.874 -969.126)">
    <g class="a" transform="translate(-4851.874 969.126)">
      <rect class="e" width="280" height="280"/>
      <rect class="f" x="4" y="4" width="272" height="272"/>
    </g>
    <g transform="translate(-5091.262 -2039.995)">
      <g transform="translate(274.55 3044.282)">
        <path class="b" d="M542.05,432.922v59.584H688.969V432.922Zm0,0" transform="translate(-537.969 -337.833)"/>
        <path class="c" d="M628.631,605.334a4.081,4.081,0,1,0-4.081-4.081,4.082,4.082,0,0,0,4.081,4.081Zm0,0" transform="translate(-575.577 -412.707)"/>
        <path class="d" d="M568.631,465.834h10.662l-6.372,19.115a4.082,4.082,0,1,0,7.745,2.58l8.162-24.487a4.08,4.08,0,0,0-3.873-5.371H568.631a4.081,4.081,0,0,0,0,8.162Zm0,0" transform="translate(-548.226 -349.115)"/>
        <path class="d" d="M658.631,465.834h10.662l-6.372,19.115a4.082,4.082,0,1,0,7.745,2.58l8.162-24.487a4.08,4.08,0,0,0-3.873-5.371H658.631a4.081,4.081,0,1,0,0,8.162Zm0,0" transform="translate(-589.253 -349.115)"/>
        <path class="d" d="M768.267,459.366a4.087,4.087,0,0,0-3.312-1.694H748.631a4.081,4.081,0,0,0,0,8.162h10.662l-6.372,19.115a4.082,4.082,0,1,0,7.745,2.58l8.162-24.487a4.09,4.09,0,0,0-.561-3.677Zm0,0" transform="translate(-630.28 -349.115)"/>
        <path class="c" d="M658.631,605.334H691.28a4.081,4.081,0,1,0,0-8.162H658.631a4.081,4.081,0,1,0,0,8.162Zm0,0" transform="translate(-589.253 -412.707)"/>
        <path class="c" d="M743.5,346.324a20.405,20.405,0,1,0-32.649,16.316v46.125H689.631V335.713a77.541,77.541,0,0,0-155.081,0V454.881a12.258,12.258,0,0,0,12.243,12.243H677.388a12.258,12.258,0,0,0,12.243-12.243V442.637h25.3a20.43,20.43,0,0,0,20.405-20.405V362.639a20.477,20.477,0,0,0,8.162-16.316Zm-16.324,28.568h-8.162v-8.577a20.293,20.293,0,0,0,8.162,0ZM632.5,408.764H591.685V357.342H632.5Zm-48.973,0H542.712V357.342h40.811Zm57.135-51.422h40.811v51.422H640.658Zm-97.946-21.63a69.379,69.379,0,0,1,138.757,0V349.18H542.712ZM648.82,458.962h-73.46V434.475h73.46Zm32.649-4.081a4.085,4.085,0,0,1-4.081,4.081H656.983V430.394a4.082,4.082,0,0,0-4.081-4.081H571.28a4.082,4.082,0,0,0-4.081,4.081v28.568H546.793a4.085,4.085,0,0,1-4.081-4.081V416.926H681.469Zm8.162-37.954h21.222v17.549H689.631Zm29.384,16.847v-50.72h8.162v39.178a12.264,12.264,0,0,1-8.162,11.542Zm10.2-76.844a12.245,12.245,0,1,1,6.122-10.606,12.258,12.258,0,0,1-6.122,10.606Zm0,0" transform="translate(-534.55 -258.172)"/>
        <path class="c" d="M682.9,353.469a4.082,4.082,0,0,0,4.081-4.081,61.216,61.216,0,1,0-122.433,0,4.082,4.082,0,0,0,4.081,4.081Zm-57.135-57.135a53.127,53.127,0,0,1,52.9,48.973h-105.8a53.127,53.127,0,0,1,52.9-48.973Zm0,0" transform="translate(-548.226 -271.848)"/>
        <path class="c" d="M673.631,342.659a4.082,4.082,0,0,0,4.081-4.081V322.253a4.081,4.081,0,1,0-8.162,0v16.324a4.082,4.082,0,0,0,4.081,4.081Zm0,0" transform="translate(-596.09 -285.523)"/>
        <path class="c" d="M629.254,358.647a4.08,4.08,0,1,0,5.771-5.771l-11.541-11.542a4.081,4.081,0,1,0-5.771,5.773Zm0,0" transform="translate(-571.915 -295.538)"/>
        <path class="c" d="M705.454,359.842a4.066,4.066,0,0,0,2.885-1.195l11.542-11.541a4.081,4.081,0,0,0-5.771-5.771l-11.541,11.542a4.08,4.08,0,0,0,2.886,6.966Zm0,0" transform="translate(-610.597 -295.537)"/>
      </g>
    </g>
  </g>
</svg>
