<?xml version="1.0"?>
<svg xmlns="http://www.w3.org/2000/svg" width="300" height="300" viewBox="0 0 300 300">
  <defs>
    <style>.a{fill:none;}.b{fill:#fff;}</style>
  </defs>
  <g transform="translate(-8512 -7151)">
    <rect class="a" width="300" height="300" transform="translate(8512 7151)"/>
    <g transform="translate(8534 7201)">
      <g transform="translate(124.342 15.672)">
        <g transform="translate(0)">
          <path class="b" d="M249.923,40.01a3.913,3.913,0,1,0,3.913,3.913A3.9,3.9,0,0,0,249.923,40.01Z" transform="translate(-246.01 -40.01)"/>
        </g>
      </g>
      <g transform="translate(46)">
        <path class="b" d="M206.594,23.5A19.607,19.607,0,0,1,187.009,3.917,3.917,3.917,0,0,0,183.092,0H73.418A3.917,3.917,0,0,0,69.5,3.917,19.607,19.607,0,0,1,49.917,23.5,3.917,3.917,0,0,0,46,27.418v63.92a113.774,113.774,0,0,0,81.13,109.043,3.916,3.916,0,0,0,2.25,0,113.786,113.786,0,0,0,81.13-109.042V27.418A3.917,3.917,0,0,0,206.594,23.5Zm-3.917,67.837a105.338,105.338,0,0,1-74.422,101.195A105.911,105.911,0,0,1,53.834,91.339V31.056A27.483,27.483,0,0,0,77.057,7.834h102.4a27.483,27.483,0,0,0,23.223,23.223Z" transform="translate(-46)"/>
      </g>
      <g transform="translate(61.668 15.668)">
        <g transform="translate(0)">
          <path class="b" d="M216.83,60.56a35.283,35.283,0,0,1-18.214-18.214A3.917,3.917,0,0,0,195.028,40h-26.78a3.917,3.917,0,0,0,0,7.834h24.3a43.06,43.06,0,0,0,18.791,18.791v49.047c0,38.332-23.012,71.407-58.754,84.646C116.845,187.077,93.834,154,93.834,115.671V66.624a43.062,43.062,0,0,0,18.791-18.791h24.3a3.917,3.917,0,1,0,0-7.834h-26.78a3.918,3.918,0,0,0-3.588,2.345A35.283,35.283,0,0,1,88.345,60.56,3.918,3.918,0,0,0,86,64.148v51.523a97.507,97.507,0,0,0,65.281,92.5,3.916,3.916,0,0,0,2.613,0,97.508,97.508,0,0,0,65.281-92.5V64.148A3.918,3.918,0,0,0,216.83,60.56Z" transform="translate(-86 -40)"/>
        </g>
      </g>
      <g transform="translate(93.003 57.187)">
        <path class="b" d="M201.252,146A35.252,35.252,0,1,0,236.5,181.252,35.292,35.292,0,0,0,201.252,146Zm0,62.671a27.418,27.418,0,1,1,27.418-27.418A27.45,27.45,0,0,1,201.252,208.671Z" transform="translate(-166 -146)"/>
      </g>
      <g transform="translate(112.587 80.689)">
        <path class="b" d="M250.1,207.147a3.918,3.918,0,0,0-5.54,0L227.75,223.962l-5.064-5.064a3.917,3.917,0,0,0-5.54,5.54l7.834,7.834a3.918,3.918,0,0,0,5.54,0L250.1,212.687A3.917,3.917,0,0,0,250.1,207.147Z" transform="translate(-215.999 -206)"/>
      </g>
    </g>
  </g>
</svg>
