<?xml version="1.0"?>
<svg xmlns="http://www.w3.org/2000/svg" width="250" height="250" viewBox="0 0 250 250">
  <defs>
    <style>.a{fill:#fff;}.b{fill:none;}</style>
  </defs>
  <g transform="translate(-6938 -5499)">
    <g transform="translate(6849 5298.11)">
      <rect class="a" width="23" height="6" transform="translate(172.659 247.603)"/>
      <path class="a" d="M207,442.226a26.336,26.336,0,1,0,26.336-26.336A26.366,26.366,0,0,0,207,442.226Zm29.262-20.25v5.913a14.659,14.659,0,0,0-5.852,0v-5.913a18.408,18.408,0,0,1,5.852,0Zm17.557,20.25a20.644,20.644,0,0,1-.234,2.926h-5.913a14.657,14.657,0,0,0,0-5.852h5.913a20.643,20.643,0,0,1,.234,2.926Zm-40.967,0a20.646,20.646,0,0,1,.234-2.926H219a14.658,14.658,0,0,0,0,5.852h-5.913a20.646,20.646,0,0,1-.234-2.926Zm11.7,0A8.779,8.779,0,1,1,233.336,451a8.788,8.788,0,0,1-8.779-8.779Zm0-18.48v6.847a14.692,14.692,0,0,0-2.85,2.85H214.86a20.581,20.581,0,0,1,9.7-9.7ZM214.856,451H221.7a14.691,14.691,0,0,0,2.85,2.85V460.7a20.581,20.581,0,0,1-9.7-9.7Zm15.553,11.471v-5.913a14.657,14.657,0,0,0,5.852,0v5.913a18.406,18.406,0,0,1-5.852,0Zm11.7-1.77v-6.847a14.692,14.692,0,0,0,2.85-2.85h6.847a20.581,20.581,0,0,1-9.7,9.7Zm9.7-27.258h-6.847a14.691,14.691,0,0,0-2.85-2.85V423.75a20.581,20.581,0,0,1,9.7,9.7Zm0,0" transform="translate(-37.299 -93.186)"/>
      <path class="a" d="M256.659,296.858A26.138,26.138,0,0,0,233.486,270.9V253.309a17.417,17.417,0,0,0-17.38-17.419H152.38A17.417,17.417,0,0,0,135,253.309V398.471a17.417,17.417,0,0,0,17.38,17.419h63.726a17.417,17.417,0,0,0,17.38-17.419V322.815a26.138,26.138,0,0,0,23.173-25.957Zm-5.793,0a20.523,20.523,0,0,1-.232,2.9h-5.854a14.575,14.575,0,0,0,0-5.806h5.854a20.522,20.522,0,0,1,.232,2.9Zm-38.569,8.71h6.778A14.56,14.56,0,0,0,221.9,308.4v6.793a20.4,20.4,0,0,1-9.6-9.621Zm26.983-8.71a8.69,8.69,0,1,1-8.69-8.71,8.709,8.709,0,0,1,8.69,8.71Zm-20.2-8.71H212.3a20.4,20.4,0,0,1,9.6-9.625v6.793a14.439,14.439,0,0,0-2.825,2.832Zm-8.765,8.71a20.524,20.524,0,0,1,.232-2.9H216.4a14.576,14.576,0,0,0,0,5.806h-5.854a20.526,20.526,0,0,1-.232-2.9Zm17.38,14.223a14.477,14.477,0,0,0,5.793,0v5.867a18.181,18.181,0,0,1-5.793,0Zm2.9-28.74a14.513,14.513,0,0,0-2.9.293v-5.867a18.178,18.178,0,0,1,5.793,0v5.867a14.513,14.513,0,0,0-2.9-.293Zm-26.07,14.516a26.138,26.138,0,0,0,23.173,25.957v58.236h-86.9V264.922h86.9V270.9a26.138,26.138,0,0,0-23.173,25.957Zm34.76,18.334V308.4a14.559,14.559,0,0,0,2.821-2.828h6.778a20.4,20.4,0,0,1-9.6,9.621Zm9.6-27.044H242.1a14.559,14.559,0,0,0-2.821-2.828v-6.793a20.4,20.4,0,0,1,9.6,9.621ZM152.38,241.7h63.726a11.613,11.613,0,0,1,11.587,11.613v5.806h-86.9v-5.806A11.613,11.613,0,0,1,152.38,241.7Zm63.726,168.387H152.38a11.613,11.613,0,0,1-11.587-11.613V386.858h86.9v11.613a11.613,11.613,0,0,1-11.587,11.613Zm0,0" transform="translate(0 0)"/>
      <path class="a" d="M377.336,415.89a26.336,26.336,0,1,0,26.336,26.336,26.366,26.366,0,0,0-26.336-26.336Zm18.48,17.557h-6.847a14.693,14.693,0,0,0-2.85-2.85V423.75a20.581,20.581,0,0,1,9.7,9.7Zm2,8.779a20.641,20.641,0,0,1-.234,2.926h-5.913a14.656,14.656,0,0,0,0-5.852h5.913a20.641,20.641,0,0,1,.234,2.926Zm-40.967,0a20.641,20.641,0,0,1,.234-2.926H363a14.659,14.659,0,0,0,0,5.852h-5.913a20.641,20.641,0,0,1-.234-2.926Zm11.7,0A8.779,8.779,0,1,1,377.336,451a8.788,8.788,0,0,1-8.779-8.779Zm11.7-20.25v5.913a14.659,14.659,0,0,0-5.852,0v-5.913a18.408,18.408,0,0,1,5.852,0Zm-11.7,1.77v6.847a14.693,14.693,0,0,0-2.85,2.85H358.86a20.581,20.581,0,0,1,9.7-9.7ZM358.856,451H365.7a14.691,14.691,0,0,0,2.85,2.85V460.7a20.581,20.581,0,0,1-9.7-9.7Zm15.553,11.471v-5.913a14.657,14.657,0,0,0,5.852,0v5.913a18.406,18.406,0,0,1-5.852,0Zm11.7-1.77v-6.847a14.693,14.693,0,0,0,2.85-2.85h6.847a20.581,20.581,0,0,1-9.7,9.7Zm0,0" transform="translate(-111.898 -93.186)"/>
      <path class="a" d="M236.7,565.742a5.852,5.852,0,1,1-5.852-5.852,5.851,5.851,0,0,1,5.852,5.852Zm0,0" transform="translate(-46.479 -167.41)"/>
    </g>
    <rect class="b" width="250" height="250" transform="translate(6938 5499)"/>
  </g>
</svg>
