<?xml version="1.0"?>
<svg xmlns="http://www.w3.org/2000/svg" xmlns:xlink="http://www.w3.org/1999/xlink" width="250" height="250" viewBox="0 0 250 250">
  <defs>
    <style>.a{fill:#fff;}.b{fill:none;}.c{clip-path:url(#a);}</style>
    <clipPath id="a">
      <rect class="a" width="168.132" height="180"/>
    </clipPath>
  </defs>
  <g transform="translate(-6462 -6875)">
    <rect class="b" width="250" height="250" transform="translate(6462 6875)"/>
    <g transform="translate(7817.461 6688.829)">
      <g transform="translate(-1314.462 221.171)">
        <g class="c" transform="translate(0 0)">
          <path class="a" d="M-1149.659,271.868l-47.447-47.447a12.039,12.039,0,0,0-16.994,0l-47.447,47.447a12.038,12.038,0,0,0,0,16.994l22.317,22.317h-63.3a12.138,12.138,0,0,0-12.125,12.125v66.027a12.138,12.138,0,0,0,12.125,12.125h66.027a12.138,12.138,0,0,0,12.125-12.125v-63.3l10.28,10.28a12.038,12.038,0,0,0,16.994,0l47.447-47.447a12.039,12.039,0,0,0,0-16.994ZM-1230.4,389.331a6.113,6.113,0,0,1-6.107,6.107h-66.027a6.113,6.113,0,0,1-6.107-6.107V323.3a6.113,6.113,0,0,1,6.107-6.107h66.027a6.113,6.113,0,0,1,6.107,6.107Zm76.483-104.721-47.447,47.443a6.019,6.019,0,0,1-8.484,0l-47.447-47.447a6.019,6.019,0,0,1,0-8.484l47.447-47.447a6.019,6.019,0,0,1,8.484,0l47.447,47.447a6.019,6.019,0,0,1,0,8.484Zm0,0" transform="translate(1314.464 -221.179)"/>
        </g>
      </g>
      <path class="a" d="M-1110.486,316.89a12.17,12.17,0,0,0-11.244,7.513,12.166,12.166,0,0,0,2.638,13.263,12.166,12.166,0,0,0,13.263,2.639,12.171,12.171,0,0,0,7.513-11.244,12.171,12.171,0,0,0-12.171-12.171Zm0,18.256a6.083,6.083,0,0,1-5.622-3.756,6.082,6.082,0,0,1,1.32-6.632,6.082,6.082,0,0,1,6.632-1.32,6.083,6.083,0,0,1,3.756,5.622,6.084,6.084,0,0,1-6.085,6.085Zm0,0" transform="translate(-95.88 -47.931)"/>
      <path class="a" d="M-1275.529,514.89a9.127,9.127,0,0,0-8.433,5.636,9.128,9.128,0,0,0,1.979,9.947,9.128,9.128,0,0,0,9.947,1.979,9.127,9.127,0,0,0,5.636-8.433,9.128,9.128,0,0,0-9.128-9.128Zm0,12.171a3.043,3.043,0,0,1-2.811-1.878,3.042,3.042,0,0,1,.66-3.316,3.042,3.042,0,0,1,3.316-.66,3.043,3.043,0,0,1,1.878,2.811,3.044,3.044,0,0,1-3.043,3.043Zm0,0" transform="translate(-14.787 -146.908)"/>
      <path class="a" d="M-1224.4,482.018a9.127,9.127,0,0,0-5.635-8.433,9.128,9.128,0,0,0-9.947,1.979,9.128,9.128,0,0,0-1.979,9.947,9.128,9.128,0,0,0,8.433,5.636,9.128,9.128,0,0,0,9.128-9.128Zm-9.128,3.043a3.043,3.043,0,0,1-2.811-1.878,3.042,3.042,0,0,1,.66-3.316,3.043,3.043,0,0,1,3.316-.66,3.043,3.043,0,0,1,1.878,2.811,3.044,3.044,0,0,1-3.043,3.043Zm0,0" transform="translate(-35.935 -125.764)"/>
      <path class="a" d="M-1191.529,449.147a9.127,9.127,0,0,0,8.433-5.636,9.128,9.128,0,0,0-1.979-9.947,9.128,9.128,0,0,0-9.947-1.979,9.127,9.127,0,0,0-5.636,8.433,9.128,9.128,0,0,0,9.128,9.128Zm0-12.171a3.043,3.043,0,0,1,2.811,1.878,3.042,3.042,0,0,1-.66,3.316,3.042,3.042,0,0,1-3.316.66,3.043,3.043,0,0,1-1.878-2.811,3.044,3.044,0,0,1,3.043-3.043Zm0,0" transform="translate(-56.898 -104.803)"/>
      <path class="a" d="M-1191.358,515.317h-21.3V521.4h24.342a3.044,3.044,0,0,0,3.043-3.043V484.89h-6.085Zm0,0" transform="translate(-50.949 -132.121)"/>
      <path class="a" d="M-1123.6,251.781l-21.3,21.3,4.3,4.3,19.148-19.148,19.148,19.148,4.3-4.3-21.3-21.3a3.041,3.041,0,0,0-4.3,0Zm0,0" transform="translate(-84.974 -14.786)"/>
      <rect class="a" width="40" height="6" transform="translate(-1218.855 383.171)"/>
      <rect class="a" width="6" height="6" transform="translate(-1173.33 383.171)"/>
      <rect class="a" width="34" height="6" transform="translate(-1218.794 371.171)"/>
      <rect class="a" width="28" height="6" transform="translate(-1218.738 359.58)"/>
    </g>
  </g>
</svg>
