<?xml version="1.0"?>
<svg xmlns="http://www.w3.org/2000/svg" width="250" height="250" viewBox="0 0 250 250">
  <defs>
    <style>.a{fill:none;}.b{fill:#fff;}</style>
  </defs>
  <g transform="translate(-7070 -6875)">
    <rect class="a" width="250" height="250" transform="translate(7070 6875)"/>
    <g transform="translate(8057.657 6702.11)">
      <path class="b" d="M-859.132,546.89a3.525,3.525,0,0,0-3.525,3.524,3.525,3.525,0,0,0,3.525,3.524,3.525,3.525,0,0,0,3.524-3.524,3.525,3.525,0,0,0-3.524-3.524Zm0,0" transform="translate(-47.817 -180.147)"/>
      <path class="b" d="M-902.175,408.853a3.529,3.529,0,0,0-2.86-1.463h-14.1a3.525,3.525,0,0,0-3.524,3.524,3.525,3.525,0,0,0,3.524,3.524h9.208l-5.5,16.508a3.526,3.526,0,0,0,2.23,4.459,3.517,3.517,0,0,0,1.114.182,3.529,3.529,0,0,0,3.344-2.412l7.049-21.147a3.532,3.532,0,0,0-.485-3.176Zm0,0" transform="translate(-15.902 -106.028)"/>
      <path class="b" d="M-812.175,408.853a3.529,3.529,0,0,0-2.86-1.463h-14.1a3.525,3.525,0,0,0-3.524,3.524,3.525,3.525,0,0,0,3.524,3.524h9.208l-5.5,16.508a3.526,3.526,0,0,0,2.23,4.459,3.517,3.517,0,0,0,1.114.182,3.529,3.529,0,0,0,3.344-2.412l7.049-21.147a3.532,3.532,0,0,0-.485-3.176Zm0,0" transform="translate(-63.769 -106.028)"/>
      <path class="b" d="M-722.175,408.853a3.529,3.529,0,0,0-2.86-1.463h-14.1a3.525,3.525,0,0,0-3.524,3.524,3.525,3.525,0,0,0,3.524,3.524h9.208l-5.5,16.508a3.526,3.526,0,0,0,2.23,4.459,3.517,3.517,0,0,0,1.114.182,3.529,3.529,0,0,0,3.344-2.412l7.049-21.147a3.532,3.532,0,0,0-.485-3.176Zm0,0" transform="translate(-111.595 -106.028)"/>
      <path class="b" d="M-800.937,546.89h-28.2a3.525,3.525,0,0,0-3.524,3.524,3.525,3.525,0,0,0,3.524,3.524h28.2a3.525,3.525,0,0,0,3.524-3.524,3.525,3.525,0,0,0-3.524-3.524Zm0,0" transform="translate(-63.784 -180.147)"/>
      <path class="b" d="M-790.235,266.249a17.6,17.6,0,0,0-17.578,17.578,17.64,17.64,0,0,0,7.031,14.055v39.734h-18.281v-62.93a66.873,66.873,0,0,0-66.8-66.8,66.873,66.873,0,0,0-66.8,66.8V377.343A10.559,10.559,0,0,0-942.11,387.89h112.5a10.559,10.559,0,0,0,10.547-10.547V366.8h21.8a17.6,17.6,0,0,0,17.578-17.578V297.883a17.64,17.64,0,0,0,7.031-14.055,17.6,17.6,0,0,0-17.578-17.578Zm-155.391,27.07h35.156v44.3h-35.156Zm91.406,87.539H-917.5V359.765h63.281Zm28.125-17.578v14.063a3.519,3.519,0,0,1-3.516,3.516h-17.578V356.249a3.516,3.516,0,0,0-3.516-3.516h-70.313a3.516,3.516,0,0,0-3.516,3.516v24.609H-942.11a3.519,3.519,0,0,1-3.516-3.516v-32.7h119.531Zm-77.344-25.664v-44.3h35.156v44.3Zm77.344,0h-35.156v-44.3h35.156Zm0-51.328H-945.626v-11.6a59.833,59.833,0,0,1,59.766-59.766,59.833,59.833,0,0,1,59.766,59.766Zm25.313,73.477h-18.281V344.648h18.281Zm14.063-10.547a10.565,10.565,0,0,1-7.031,9.943V315.468h7.031Zm0-40.781h-7.031v-7.388a17.661,17.661,0,0,0,3.516.357,17.661,17.661,0,0,0,3.516-.357Zm1.758-15.473a10.559,10.559,0,0,1-5.273,1.41,10.559,10.559,0,0,1-5.273-1.41,10.591,10.591,0,0,1-5.273-9.137,10.559,10.559,0,0,1,10.547-10.547,10.559,10.559,0,0,1,10.547,10.547,10.588,10.588,0,0,1-5.273,9.137Zm0,0" transform="translate(0 0)"/>
      <path class="b" d="M-869.79,237.89a52.928,52.928,0,0,0-52.867,52.867,3.525,3.525,0,0,0,3.524,3.524h98.685a3.525,3.525,0,0,0,3.524-3.524A52.928,52.928,0,0,0-869.79,237.89Zm-14.1,49.343h-31.586a45.881,45.881,0,0,1,45.684-42.294,45.881,45.881,0,0,1,45.684,42.294Zm0,0" transform="translate(-15.902 -15.902)"/>
      <path class="b" d="M-814.132,267.89a3.525,3.525,0,0,0-3.525,3.525v14.1a3.525,3.525,0,0,0,3.525,3.524,3.525,3.525,0,0,0,3.524-3.524v-14.1a3.525,3.525,0,0,0-3.524-3.525Zm0,0" transform="translate(-71.725 -31.884)"/>
      <path class="b" d="M-854.706,300.858l-9.967-9.968a3.525,3.525,0,0,0-4.984,0,3.525,3.525,0,0,0,0,4.985l9.968,9.966a3.513,3.513,0,0,0,2.491,1.034,3.513,3.513,0,0,0,2.493-1.034,3.523,3.523,0,0,0,0-4.984Zm0,0" transform="translate(-43.555 -43.556)"/>
      <path class="b" d="M-769.851,290.889a3.523,3.523,0,0,0-4.984,0l-9.967,9.968a3.523,3.523,0,0,0,0,4.984,3.511,3.511,0,0,0,2.493,1.032,3.512,3.512,0,0,0,2.491-1.032l9.968-9.967a3.523,3.523,0,0,0,0-4.984Zm0,0" transform="translate(-88.645 -43.555)"/>
    </g>
  </g>
</svg>
