<?xml version="1.0"?>
<svg xmlns="http://www.w3.org/2000/svg" xmlns:xlink="http://www.w3.org/1999/xlink" width="250" height="250" viewBox="0 0 250 250">
  <defs>
    <style>.a{fill:#fff;}.b{fill:none;}.c{clip-path:url(#a);}</style>
    <clipPath id="a">
      <rect class="a" width="162.187" height="180"/>
    </clipPath>
  </defs>
  <g transform="translate(-6462 -6363)">
    <rect class="b" width="250" height="250" transform="translate(6462 6363)"/>
    <g transform="translate(6463.997 6183.11)">
      <path class="a" d="M124.445,344.237c3.237,10.425,11.382,20.726,16.671,23.45a3.52,3.52,0,0,0,1.448.389c.167.009.335.013.512.013,6.106,0,17.859-4.783,25.651-11.987,5-4.617,7.718-9.713,7.871-14.737a16.1,16.1,0,0,0-8.273-14.394,15.293,15.293,0,0,0-14.954.187.788.788,0,0,1-1.154-.309,15.291,15.291,0,0,0-12.856-7.639,16.09,16.09,0,0,0-14.365,8.329c-2.378,4.427-2.567,10.2-.55,16.7Zm6.776-13.355a9.033,9.033,0,0,1,7.692-4.613c.077,0,.155,0,.232,0a8.265,8.265,0,0,1,6.956,4.118,7.85,7.85,0,0,0,10.793,2.893,8.264,8.264,0,0,1,8.084-.088,9.011,9.011,0,0,1,4.556,7.953c-.12,3.9-3.113,7.462-5.605,9.764-6.609,6.11-16.231,9.751-20.246,10.084-3.309-2.3-9.821-10.261-12.49-18.857-1.006-3.239-1.818-7.823.028-11.259Zm0,0" transform="translate(-43.155 -55.507)"/>
      <path class="a" d="M133.759,255.336a3.534,3.534,0,0,0,3.281-2.223v0a3.53,3.53,0,1,0-3.283,2.225Zm0,0" transform="translate(-46.878 -17.653)"/>
      <g transform="translate(42.003 214.89)">
        <g class="c">
          <path class="a" d="M210.641,486.145a3.517,3.517,0,1,0,2.558,4.265v0a3.512,3.512,0,0,0-2.558-4.261Zm0,0" transform="translate(-129.271 -358.938)"/>
          <path class="a" d="M193.675,261.3H163.549l3.514-13.112a10.566,10.566,0,0,0-7.458-12.918L84.9,215.251a10.558,10.558,0,0,0-12.916,7.456l-1.988,7.423a3.515,3.515,0,1,0,6.791,1.82l1.988-7.422a3.52,3.52,0,0,1,4.3-2.486l74.707,20.017a3.537,3.537,0,0,1,2.486,4.306L131.156,355.03a3.52,3.52,0,0,1-4.306,2.487L52.142,337.5a3.519,3.519,0,0,1-2.486-4.3L68.6,262.513a3.515,3.515,0,0,0-6.791-1.82l-18.94,70.682a10.558,10.558,0,0,0,7.458,12.916l55.464,14.861v25.192a10.559,10.559,0,0,0,10.547,10.547h77.342a10.559,10.559,0,0,0,10.547-10.547v-112.5A10.559,10.559,0,0,0,193.675,261.3Zm-38.686,73.2a7.865,7.865,0,0,0-5.542,2.324,8.2,8.2,0,0,1-6.758,2.338l8.066-30.1a21.594,21.594,0,0,1,4.253-2.272c3.774,1.359,12.081,7.335,16.859,14.907,1.8,2.855,3.761,7.05,2.871,10.829a8.961,8.961,0,0,1-6.427,6.469,8.219,8.219,0,0,1-7.747-2.166,7.883,7.883,0,0,0-5.573-2.324Zm42.2,49.845a3.519,3.519,0,0,1-3.516,3.516H116.333a3.519,3.519,0,0,1-3.516-3.516V361.036l12.211,3.272a10.543,10.543,0,0,0,12.918-7.458l2.91-10.86a15.558,15.558,0,0,0,2.809.26,15.13,15.13,0,0,0,7.822-2.168v5.464h-.842a3.516,3.516,0,0,0,0,7.031h8.716a3.516,3.516,0,0,0,0-7.031h-.842v-5.467a15.248,15.248,0,0,0,11.4,1.754,16.022,16.022,0,0,0,11.66-11.7c1.147-4.867-.158-10.466-3.77-16.19-5.8-9.187-16.278-16.988-22.06-18.247a3.492,3.492,0,0,0-1.494,0c-.353.077-.71.174-1.071.287l8.48-31.65h32.01a3.519,3.519,0,0,1,3.516,3.516Zm0,0" transform="translate(-42.269 -214.89)"/>
        </g>
      </g>
      <path class="a" d="M346.036,553.886a3.534,3.534,0,1,0,3.533,3.535v0a3.533,3.533,0,0,0-3.533-3.531Zm0,0" transform="translate(-159.747 -180.197)"/>
      <path class="a" d="M94.718,281.374a3.484,3.484,0,0,0,.971.138,3.536,3.536,0,0,0,3.4-2.564v0a3.533,3.533,0,1,0-4.367,2.429Zm0,0" transform="translate(-26.524 -31.497)"/>
    </g>
  </g>
</svg>
