<?xml version="1.0"?>
<svg xmlns="http://www.w3.org/2000/svg" width="250" height="250" viewBox="0 0 250 250">
  <defs>
    <style>.a{fill:#fff;}.b{fill:none;}</style>
  </defs>
  <g transform="translate(-7020 -5157)">
    <g transform="translate(6949 4963.11)">
      <path class="a" d="M224.516,442.912a11.158,11.158,0,1,0,0-5.306h-3.522v-6.357a11.158,11.158,0,1,0-5.305,0v6.357h-3.52a11.159,11.159,0,1,0,0,5.306h3.52v5.118l-8.128,13.547a2.654,2.654,0,0,0,2.275,4.018h17.012a2.654,2.654,0,0,0,2.275-4.018L221,448.029v-5.118Zm10.838-8.505a5.853,5.853,0,1,1-5.853,5.853,5.859,5.859,0,0,1,5.853-5.853Zm-22.865-14a5.853,5.853,0,1,1,5.853,5.853,5.859,5.859,0,0,1-5.853-5.853Zm-11.158,25.7a5.853,5.853,0,1,1,5.853-5.853,5.861,5.861,0,0,1-5.853,5.853Zm13.19,14.177,3.82-6.368,3.821,6.368Zm0,0" transform="translate(-44.825 -96.05)"/>
      <path class="a" d="M218.546,228.89a66.848,66.848,0,0,0-40.853,13.773,67.972,67.972,0,0,0-23.741,34.2,67.456,67.456,0,1,0,84.078,84.078,67.955,67.955,0,0,0,34.085-23.6,66.832,66.832,0,0,0,13.885-41,67.531,67.531,0,0,0-67.454-67.454Zm46.249,25.939A62.21,62.21,0,0,1,277.641,277a19.9,19.9,0,0,1-12.847-22.169Zm-46.249-20.665a62.135,62.135,0,0,1,12.806,1.329,19.9,19.9,0,0,1-25.631-.015,62.775,62.775,0,0,1,12.825-1.315Zm-46.3,20.7a19.8,19.8,0,0,1-2.369,13.367,20.494,20.494,0,0,1-5.891,6.42q-2.007.283-3.977.681a62.694,62.694,0,0,1,12.237-20.467Zm1.208,24.393a62.3,62.3,0,0,1,12.807,1.327,19.891,19.891,0,0,1-25.613,0,62.3,62.3,0,0,1,12.806-1.327Zm-46.3,20.719a19.9,19.9,0,0,1-12.792,22.093,62.183,62.183,0,0,1,12.792-22.093Zm0,82.925A62.188,62.188,0,0,1,114.366,360.8,19.891,19.891,0,0,1,127.158,382.9Zm46.3,20.718a62.191,62.191,0,0,1-12.85-1.338,19.893,19.893,0,0,1,25.613.02,62.26,62.26,0,0,1-12.763,1.318ZM219.7,382.951a19.892,19.892,0,0,1,12.845-22.169A62.209,62.209,0,0,1,219.7,382.951Zm14.469-28.1a25.183,25.183,0,0,0-18.8,32.472,62.2,62.2,0,0,1-23.2,13.414,25.185,25.185,0,0,0-37.515-.029,62.209,62.209,0,0,1-23.159-13.427,25.175,25.175,0,0,0-18.756-32.415,62.305,62.305,0,0,1,0-26.862,25.177,25.177,0,0,0,18.756-32.417,62.2,62.2,0,0,1,23.205-13.44,25.183,25.183,0,0,0,37.513,0,62.205,62.205,0,0,1,23.159,13.4,25.182,25.182,0,0,0,18.8,32.472,62.334,62.334,0,0,1,0,26.834Zm-2.507-47.459a67.931,67.931,0,0,0-24.17-24.17l11.049-11.048,24.17,24.17Zm.883,14.7A19.893,19.893,0,0,1,219.7,299.918a62.237,62.237,0,0,1,12.845,22.171Zm35.379,12.046q-1.489,1.942-3.128,3.761a19.9,19.9,0,0,1,12.876-22.218,61.849,61.849,0,0,1-9.749,18.457Zm-5.339-12.312a25.057,25.057,0,0,0-2.123,20.429,62.73,62.73,0,0,1-20.9,12.627,67.658,67.658,0,0,0,1.346-13.443c0-2.02-.094-4.018-.27-5.992a44.91,44.91,0,1,0-53.849-70.856,2.637,2.637,0,0,0,3.728,3.73,39.637,39.637,0,1,1,49.374,61.426,66.912,66.912,0,0,0-5.629-17.492l14.044-14.044a2.635,2.635,0,0,0,0-3.728l-27.9-27.9a2.635,2.635,0,0,0-3.728,0l-14.044,14.044a67.058,67.058,0,0,0-29.183-6.645c-.383,0-.765.007-1.148.015a25.53,25.53,0,0,0,2.137-3.129,25.058,25.058,0,0,0,2.135-20.394q2.071-1.9,4.312-3.615a61.845,61.845,0,0,1,18.876-9.825,25.184,25.184,0,0,0,37.537.026,62.185,62.185,0,0,1,23.158,13.4,25.182,25.182,0,0,0,18.8,32.472,62.694,62.694,0,0,1,.022,26.829,25.051,25.051,0,0,0-16.7,12.067Zm0,0" transform="translate(0 0)"/>
      <path class="a" d="M199.279,373.179a45.182,45.182,0,1,0,45.183,45.183,44.745,44.745,0,0,0-9.292-27.373,2.653,2.653,0,1,0-4.217,3.22,39.481,39.481,0,0,1,8.2,24.153,39.877,39.877,0,1,1-39.878-39.878,39.481,39.481,0,0,1,24.153,8.2,2.653,2.653,0,1,0,3.22-4.217,44.745,44.745,0,0,0-27.373-9.292Zm0,0" transform="translate(-25.415 -77.336)"/>
    </g>
    <rect class="b" width="250" height="250" transform="translate(7020 5157)"/>
  </g>
</svg>
