<?xml version="1.0"?>
<svg xmlns="http://www.w3.org/2000/svg" width="250" height="250" viewBox="0 0 250 250">
  <defs>
    <style>.a{fill:none;}.b{fill:#fff;}</style>
  </defs>
  <g transform="translate(-5969 -7251)">
    <rect class="a" width="250" height="250" transform="translate(5969 7251)"/>
    <g transform="translate(6003 7285)">
      <path class="b" d="M25.45,20.45a4.73,4.73,0,0,1,4.725,4.725H34.9a9.439,9.439,0,0,0-7.087-9.114V11H23.087v5.06A9.43,9.43,0,0,0,25.45,34.624a4.725,4.725,0,1,1-4.725,4.725H16a9.439,9.439,0,0,0,7.087,9.114v5.06h4.725v-5.06A9.43,9.43,0,0,0,25.45,29.9a4.725,4.725,0,0,1,0-9.45Z" transform="translate(29.75 21.245)"/>
      <path class="b" d="M49.45,44.45a4.73,4.73,0,0,1,4.725,4.725H58.9a9.439,9.439,0,0,0-7.087-9.114V35H47.087v5.06A9.43,9.43,0,0,0,49.45,58.624a4.725,4.725,0,1,1-4.725,4.725H40a9.439,9.439,0,0,0,7.087,9.114v5.06h4.725v-5.06A9.43,9.43,0,0,0,49.45,53.9a4.725,4.725,0,0,1,0-9.45Z" transform="translate(77.351 72.232)"/>
      <path class="b" d="M125.839,70.677A54.857,54.857,0,0,0,108.527,73.5,55.158,55.158,0,1,0,73.5,108.527a55.139,55.139,0,1,0,52.336-37.849Zm0,87.1a31.935,31.935,0,1,1,31.935-31.935A31.973,31.973,0,0,1,125.839,157.774ZM150.362,97.21a37.535,37.535,0,0,0-21.62-8.965V76.632A49.079,49.079,0,0,1,158.573,89Zm-27.427-8.965a37.527,37.527,0,0,0-21.62,8.965L93.108,89a49.088,49.088,0,0,1,29.831-12.371V88.245ZM89,93.1l8.207,8.207a37.535,37.535,0,0,0-8.965,21.62H76.629A49.1,49.1,0,0,1,89,93.1Zm-.755,35.637a37.527,37.527,0,0,0,8.965,21.62L89,158.57a49.088,49.088,0,0,1-12.371-29.831H88.245Zm13.07,25.726a37.535,37.535,0,0,0,21.62,8.965v11.613A49.079,49.079,0,0,1,93.1,162.675Zm27.427,8.965a37.527,37.527,0,0,0,21.62-8.965l8.207,8.207a49.088,49.088,0,0,1-29.831,12.371V163.433Zm25.726-13.07a37.535,37.535,0,0,0,8.965-21.62h11.613a49.079,49.079,0,0,1-12.371,29.831Zm8.965-27.427a37.527,37.527,0,0,0-8.965-21.62l8.207-8.207a49.089,49.089,0,0,1,12.371,29.831H163.433ZM89,84.9,84.79,80.685a37.535,37.535,0,0,0,8.965-21.62h11.6a48.686,48.686,0,0,1-4.329,17.576A55.348,55.348,0,0,0,89,84.9Zm4.753-31.639a37.527,37.527,0,0,0-8.965-21.62L93,23.43a49.088,49.088,0,0,1,12.371,29.831H93.755ZM80.685,27.533a37.508,37.508,0,0,0-21.62-8.965V6.955A49.078,49.078,0,0,1,88.9,19.325ZM53.258,18.567a37.527,37.527,0,0,0-21.62,8.965l-8.21-8.21A49.088,49.088,0,0,1,53.258,6.952ZM27.533,31.638a37.527,37.527,0,0,0-8.965,21.62H6.955A49.079,49.079,0,0,1,19.325,23.427ZM18.567,59.065a37.527,37.527,0,0,0,8.965,21.62l-8.207,8.207A49.046,49.046,0,0,1,6.955,59.065ZM31.638,84.79a37.535,37.535,0,0,0,21.62,8.965v11.613A49.079,49.079,0,0,1,23.427,93ZM56.161,88.1A31.935,31.935,0,1,1,88.1,56.161,31.973,31.973,0,0,1,56.161,88.1Zm2.9,17.26v-11.6a37.527,37.527,0,0,0,21.62-8.965L84.9,89.005a55.349,55.349,0,0,0-8.257,12.022,48.731,48.731,0,0,1-17.576,4.329Z" transform="translate(0 0)"/>
      <path class="b" d="M64.262,45.523A21.262,21.262,0,1,0,43,24.262,21.286,21.286,0,0,0,64.262,45.523Zm0-37.8A16.537,16.537,0,1,1,47.725,24.262,16.556,16.556,0,0,1,64.262,7.725Z" transform="translate(90.752 2.725)"/>
      <path class="b" d="M58.812,30.624A11.812,11.812,0,1,0,47,18.812,11.825,11.825,0,0,0,58.812,30.624Zm0-18.9a7.087,7.087,0,1,1-7.087,7.087A7.1,7.1,0,0,1,58.812,11.725Z" transform="translate(96.202 8.174)"/>
      <path class="b" d="M24.262,43A21.262,21.262,0,1,0,45.523,64.262,21.286,21.286,0,0,0,24.262,43Zm0,37.8A16.537,16.537,0,1,1,40.8,64.262,16.556,16.556,0,0,1,24.262,80.8Z" transform="translate(2.725 90.752)"/>
      <path class="b" d="M18.812,47A11.812,11.812,0,1,0,30.624,58.812,11.825,11.825,0,0,0,18.812,47Zm0,18.9A7.087,7.087,0,1,1,25.9,58.812,7.1,7.1,0,0,1,18.812,65.9Z" transform="translate(8.174 96.202)"/>
    </g>
  </g>
</svg>
