<?xml version="1.0"?>
<svg xmlns="http://www.w3.org/2000/svg" xmlns:xlink="http://www.w3.org/1999/xlink" width="280" height="280" viewBox="0 0 280 280">
  <defs>
    <style>.a,.c,.d,.e{fill:none;}.a{stroke:rgba(112,112,112,0);}.b{fill:url(#a);}.e{stroke:#fff;stroke-linecap:round;stroke-linejoin:round;stroke-width:8px;}.f,.g{stroke:none;}.g{fill:#fff;}</style>
    <linearGradient id="a" x1="0.5" x2="0.5" y2="0.977" gradientUnits="objectBoundingBox">
      <stop offset="0" stop-color="#fff" stop-opacity="0"/>
      <stop offset="0.424" stop-color="#daf4ec" stop-opacity="0.153"/>
      <stop offset="1" stop-color="#fff"/>
    </linearGradient>
  </defs>
  <g transform="translate(5036.859 -807.141)">
    <g class="a" transform="translate(-5036.859 807.141)">
      <rect class="f" width="280" height="280"/>
      <rect class="d" x="0.5" y="0.5" width="279" height="279"/>
    </g>
    <path class="b" d="M0,90.569V24.336a9.833,9.833,0,0,1,1.744-5.487,10.6,10.6,0,0,1,4.8-3.7l47.3-17.289A37.535,37.535,0,0,1,63.674-4a34.567,34.567,0,0,1,9.564,1.858l49.817,17.507a12.049,12.049,0,0,1,4.711,3.5,10.434,10.434,0,0,1,1.477,5.409V90.569c0,36.815-23.091,73.224-56.142,86.159a78.976,78.976,0,0,1-8.674,2.707,63.284,63.284,0,0,1-8.1-2.707C23.7,164.606,0,127.866,0,90.569Z" transform="translate(-4961.481 859.374)"/>
    <g class="c" transform="translate(-4980.946 835.028)">
      <path class="f" d="M0,112.111V36.871a12.8,12.8,0,0,1,2.269-7.139,13.786,13.786,0,0,1,6.251-4.818l61.55-22.5S77.24,0,82.853,0,95.3,2.418,95.3,2.418L160.119,25.2s4.117,1.658,6.13,4.557a13.577,13.577,0,0,1,1.922,7.038v75.318c0,47.9-30.046,92.2-73.051,109.031-3.094,1.214-8.469,3.072-11.035,3.083s-6.8-1.6-10.8-3.083C30.837,205.368,0,160.642,0,112.111Z"/>
      <path class="g" d="M 82.85274505615234 8 C 79.36781311035156 8 74.28353118896484 9.444686889648438 72.8179931640625 9.931427001953125 L 11.23316955566406 32.43946838378906 C 10.80984497070312 32.60429382324219 9.55810546875 33.25433349609375 8.858779907226562 34.26957702636719 C 8.039566040039062 35.45889282226562 7.999313354492188 36.73918151855469 8.001419067382812 36.87065124511719 L 8.001419067382812 112.1113586425781 C 8.001419067382812 156.9983520507812 35.99374389648438 198.7496490478516 76.40781402587891 213.7673950195312 C 78.7955322265625 214.6569976806641 82.79188537597656 216.1458587646484 83.95706939697266 216.2276458740234 C 84.83538818359375 216.1657257080078 88.06159973144531 215.3179626464844 92.20395660400391 213.6921844482422 C 132.221923828125 198.0298919677734 160.1709899902344 156.2583618164062 160.1709899902344 112.1113586425781 L 160.171630859375 36.71322631835938 C 160.1679992675781 35.89964294433594 159.9172515869141 34.68858337402344 159.6802062988281 34.32142639160156 C 159.3474884033203 33.86660766601562 158.0542755126953 33.01094055175781 157.466064453125 32.74543762207031 L 92.62828063964844 9.95928955078125 C 91.19188690185547 9.451004028320312 86.31282043457031 8 82.85274505615234 8 M 82.85274505615234 0 C 88.46527862548828 0 95.29706573486328 2.417572021484375 95.29706573486328 2.417572021484375 L 160.1184997558594 25.19793701171875 C 160.1184997558594 25.19793701171875 164.2355651855469 26.85597229003906 166.2487030029297 29.7547607421875 C 168.2618560791016 32.65350341796875 168.1709899902344 36.79296875 168.1709899902344 36.79296875 L 168.1709899902344 112.1113586425781 C 168.1709899902344 160.0146484375 138.12548828125 204.3102569580078 95.11963653564453 221.1419372558594 C 92.02574157714844 222.3562164306641 86.65013885498047 224.2144012451172 84.08502960205078 224.2250061035156 C 84.07673645019531 224.2250366210938 84.06809997558594 224.2250518798828 84.05976867675781 224.2250518798828 C 81.49219512939453 224.2250518798828 77.26946258544922 222.6248779296875 73.28706359863281 221.1419372558594 C 30.83741760253906 205.3680725097656 0.0014190673828125 160.6419372558594 0.0014190673828125 112.1113586425781 L 0.0014190673828125 36.87065124511719 C 0.0014190673828125 36.87065124511719 -0.1600799560546875 33.26011657714844 2.270492553710938 29.73147583007812 C 4.701065063476562 26.20278930664062 8.521820068359375 24.91368103027344 8.521820068359375 24.91368103027344 L 70.07174682617188 2.417572021484375 C 70.07174682617188 2.417572021484375 77.24017333984375 0 82.85274505615234 0 Z"/>
    </g>
    <path class="d" d="M0,90.569V24.336a9.833,9.833,0,0,1,1.744-5.487,10.6,10.6,0,0,1,4.8-3.7l47.3-17.289A37.535,37.535,0,0,1,63.674-4a34.567,34.567,0,0,1,9.564,1.858l49.817,17.507a12.049,12.049,0,0,1,4.711,3.5,10.434,10.434,0,0,1,1.477,5.409V90.569c0,36.815-23.091,73.224-56.142,86.159a78.976,78.976,0,0,1-8.674,2.707,63.284,63.284,0,0,1-8.1-2.707C23.7,164.606,0,127.866,0,90.569Z" transform="translate(-4961.481 859.374)"/>
    <path class="e" d="M-4845.838,1022.53l-46.176,46.188-24.49-24.259,11.127-11.128,13.363,13.361,35.313-35.315Z" transform="translate(-14.063 -94.183)"/>
  </g>
</svg>
